<svg xmlns="http://www.w3.org/2000/svg"  viewBox="0 0 50 50" width="50px" height="50px"><path d="M 24.875 5.625 C 22.762 5.625 20.64775 5.8639375 18.59375 6.3359375 L 17.138672 6.6699219 C 15.908672 6.9509219 15.010844 7.9489688 14.839844 9.1679688 C 9.9798438 12.268969 6.2021875 17.379859 4.6171875 23.005859 L 4.390625 23.115234 C 2.349625 24.116234 1.2413125 26.374516 1.6953125 28.603516 L 3.0507812 35.248047 C 3.5217813 37.567047 5.5822187 39.25 7.9492188 39.25 L 7.9609375 39.25 C 11.682937 42.962 17.818594 45 25.308594 45 C 32.998594 45 39.237594 42.855125 42.933594 38.953125 C 45.060594 38.698125 46.793563 37.124047 47.226562 34.998047 L 48.582031 28.353516 C 49.030031 26.154516 47.958703 23.930203 45.970703 22.908203 C 44.371703 17.326203 40.609109 12.254828 35.787109 9.1738281 C 35.644109 7.9758281 34.786516 6.9568125 33.603516 6.6328125 C 31.175516 5.9648125 28.666484 5.625 26.146484 5.625 L 24.875 5.625 z M 25.308594 12.878906 C 33.474594 12.878906 39.808594 20.926609 39.808594 27.849609 C 39.808594 37.380609 28.709594 38.121094 25.308594 38.121094 C 21.907594 38.121094 10.808594 37.380609 10.808594 27.849609 C 10.808594 20.926609 17.142594 12.878906 25.308594 12.878906 z M 18.771484 29.130859 C 18.642719 29.116594 18.509906 29.128469 18.378906 29.167969 C 17.849906 29.325969 17.549031 29.882156 17.707031 30.410156 C 18.516031 33.112156 21.515 35 25 35 C 28.485 35 31.483969 33.112156 32.292969 30.410156 C 32.450969 29.882156 32.150094 29.325969 31.621094 29.167969 C 31.096094 29.009969 30.534953 29.310844 30.376953 29.839844 C 29.828953 31.670844 27.567 33 25 33 C 22.433 33 20.171047 31.670844 19.623047 29.839844 C 19.503797 29.443094 19.157781 29.173656 18.771484 29.130859 z"/></svg>